# xmcd CD database file
#
# Track frame offsets:
#	150
#	18033
#	35639
#	49900
#	61420
#	75715
#	93081
#	110519
#	130166
#	144271
#	157836
#	176932
#	190636
#
# Disc length: 2659 seconds
#
# Revision: 0
# Processed by: cddbd v1.5.2PL0 Copyright (c) Steve Scherf et al.
# Submitted via: CDex 1.51
#
DISCID=a00a610d
DTITLE=Crosby Sisters - Coming On Strong
DYEAR=1997
DGENRE=Country
TTITLE0=Sadder Than a Man Should Be
TTITLE1=Coming on Strong
TTITLE2=One By One
TTITLE3=Same Blue Still
TTITLE4=Sorrow in the Wind
TTITLE5=Eastbound Train
TTITLE6=Say Goodbye to the Broken Hearted
TTITLE7=Wings Of An Eagle
TTITLE8=I Never Will Marry
TTITLE9=Give Me Flowers While I'm Living
TTITLE10=McKean Sisters Tribute Medley
TTITLE11=Train of Desparation
TTITLE12=Take These Chains From My Heart
EXTD=YEAR: 1997
EXTT0=
EXTT1=
EXTT2=
EXTT3=
EXTT4=
EXTT5=
EXTT6=
EXTT7=
EXTT8=
EXTT9=
EXTT10=
EXTT11=
EXTT12=
PLAYORDER=
